<svg width="119" height="64" viewBox="0 0 119 64" fill="none" xmlns="http://www.w3.org/2000/svg">
<path d="M72.34 57.9407H53.8198V55.0801H72.34C73.5556 55.0604 74.7251 54.5683 75.6395 53.6916C76.5539 52.815 77.1535 51.611 77.331 50.2951L83.546 9.63516C83.679 8.7859 83.6416 7.91515 83.4364 7.08329C83.2312 6.25142 82.8631 5.47833 82.3577 4.81761C81.8914 4.2097 81.3097 3.72028 80.6529 3.38344C79.9962 3.0466 79.2803 2.87043 78.555 2.86718H33.8557C32.6393 2.88711 31.469 3.38019 30.5545 4.25814C29.64 5.1361 29.041 6.34158 28.8647 7.65873L28.1458 12.3853L25.5612 11.9107L26.286 7.19063C26.5678 5.20998 27.4838 3.40339 28.8704 2.0934C30.2569 0.783411 32.0239 0.0552988 33.8557 0.0390625H78.555C79.6606 0.0414976 80.7524 0.308062 81.754 0.82013C82.7557 1.3322 83.643 2.07742 84.3541 3.00371C85.1093 3.98176 85.6601 5.12854 85.968 6.36383C86.2759 7.59913 86.3334 8.89311 86.1366 10.1553L79.9157 50.7632C79.6388 52.7496 78.7242 54.5632 77.3359 55.8786C75.9476 57.194 74.1764 57.925 72.34 57.9407Z" fill="#23252D"/>
<path d="M39.6251 57.9406H27.6586C26.5539 57.9381 25.463 57.6715 24.4624 57.1594C23.4617 56.6473 22.5754 55.9021 21.8655 54.976C21.111 53.9975 20.5606 52.8507 20.2527 51.6155C19.9448 50.3804 19.8869 49.0866 20.083 47.8244L20.6771 43.9236L23.2558 44.3917L22.6616 48.2925C22.5279 49.1408 22.565 50.0107 22.7702 50.8417C22.9755 51.6726 23.344 52.4445 23.85 53.1036C24.3145 53.712 24.8951 54.2019 25.551 54.5388C26.2068 54.8757 26.9222 55.0516 27.6467 55.054H39.6133L39.6251 57.9406Z" fill="#23252D"/>
<path d="M108.709 57.9407H102.173V55.08H108.709C109.926 55.0603 111.097 54.5675 112.013 53.6896C112.928 52.8118 113.528 51.6062 113.706 50.2885L116.314 33.1507C116.432 32.3719 116.408 31.5754 116.243 30.8068C116.079 30.0382 115.778 29.3125 115.358 28.6712L104.039 11.6635C103.578 10.963 102.972 10.3913 102.271 9.99486C101.57 9.59837 100.794 9.38825 100.004 9.38153H85.1503V6.5144H100.004C101.206 6.52415 102.389 6.84285 103.457 7.44479C104.525 8.04673 105.449 8.91505 106.154 9.97966L117.443 26.9874C118.067 27.9361 118.514 29.0103 118.757 30.1482C119.001 31.2862 119.037 32.4656 118.863 33.6188L116.255 50.7631C115.979 52.7441 115.069 54.5534 113.687 55.868C112.304 57.1827 110.54 57.9173 108.709 57.9407Z" fill="#23252D"/>
<path d="M88.6142 55.0801H72.334V57.9407H88.6142V55.0801Z" fill="#23252D"/>
<path d="M38.9715 11.6831H7.03494C6.22113 11.6831 5.5614 12.4035 5.5614 13.2922C5.5614 14.1809 6.22113 14.9013 7.03494 14.9013H38.9715C39.7853 14.9013 40.445 14.1809 40.445 13.2922C40.445 12.4035 39.7853 11.6831 38.9715 11.6831Z" fill="#23252D"/>
<path d="M43.5287 19.3613H22.1743C21.3605 19.3613 20.7008 20.0817 20.7008 20.9704C20.7008 21.8591 21.3605 22.5795 22.1743 22.5795H43.5287C44.3426 22.5795 45.0023 21.8591 45.0023 20.9704C45.0023 20.0817 44.3426 19.3613 43.5287 19.3613Z" fill="#23252D"/>
<path d="M30.4927 26.6753H15.9534C15.1396 26.6753 14.4799 27.3957 14.4799 28.2844C14.4799 29.1731 15.1396 29.8935 15.9534 29.8935H30.4927C31.3065 29.8935 31.9662 29.1731 31.9662 28.2844C31.9662 27.3957 31.3065 26.6753 30.4927 26.6753Z" fill="#23252D"/>
<path d="M39.7142 33.9895H11.4378C10.624 33.9895 9.96423 34.7099 9.96423 35.5986C9.96423 36.4873 10.624 37.2077 11.4378 37.2077H39.7142C40.528 37.2077 41.1878 36.4873 41.1878 35.5986C41.1878 34.7099 40.528 33.9895 39.7142 33.9895Z" fill="#23252D"/>
<path d="M29.75 41.2646H1.47354C0.659725 41.2646 0 41.9851 0 42.8737C0 43.7624 0.659725 44.4828 1.47354 44.4828H29.75C30.5638 44.4828 31.2235 43.7624 31.2235 42.8737C31.2235 41.9851 30.5638 41.2646 29.75 41.2646Z" fill="#23252D"/>
<path d="M2.42422 15.2328C3.36929 15.2328 4.13542 14.3653 4.13542 13.2953C4.13542 12.2253 3.36929 11.3579 2.42422 11.3579C1.47914 11.3579 0.713013 12.2253 0.713013 13.2953C0.713013 14.3653 1.47914 15.2328 2.42422 15.2328Z" fill="#23252D"/>
<path d="M48.0979 22.9046C49.043 22.9046 49.8091 22.0372 49.8091 20.9672C49.8091 19.8972 49.043 19.0298 48.0979 19.0298C47.1529 19.0298 46.3867 19.8972 46.3867 20.9672C46.3867 22.0372 47.1529 22.9046 48.0979 22.9046Z" fill="#23252D"/>
<path d="M6.93984 37.5328C7.88491 37.5328 8.65105 36.6654 8.65105 35.5954C8.65105 34.5254 7.88491 33.658 6.93984 33.658C5.99477 33.658 5.22864 34.5254 5.22864 35.5954C5.22864 36.6654 5.99477 37.5328 6.93984 37.5328Z" fill="#23252D"/>
<path d="M46.2679 63.9934C45.1535 64.007 44.0488 63.7646 43.0254 63.282C42.0019 62.7993 41.0824 62.0871 40.3262 61.1913C39.5414 60.2483 38.9465 59.1354 38.5801 57.9246C38.2136 56.7139 38.0838 55.4324 38.1991 54.1633C38.5972 48.8776 42.7623 44.5737 47.4919 44.5737C48.6065 44.5585 49.7115 44.8001 50.7352 45.2829C51.7589 45.7656 52.6783 46.4787 53.4336 47.3758C54.2175 48.318 54.8119 49.4299 55.1783 50.6394C55.5448 51.849 55.675 53.1292 55.5607 54.3973C55.1626 59.696 50.9974 63.9934 46.2679 63.9934ZM47.5156 47.4343C45.814 47.4949 44.1922 48.2378 42.9586 49.5217C41.725 50.8056 40.9657 52.5408 40.8253 54.3973C40.7439 55.2727 40.8309 56.157 41.0806 56.9934C41.3302 57.8299 41.7371 58.5998 42.2751 59.2539C42.7838 59.8543 43.4021 60.3312 44.0898 60.6537C44.7776 60.9762 45.5196 61.1372 46.2679 61.1263C47.9694 61.0657 49.5913 60.3228 50.8249 59.0389C52.0584 57.755 52.8177 56.0198 52.9582 54.1633C53.0394 53.2889 52.9524 52.4056 52.7027 51.5702C52.453 50.7349 52.0461 49.9661 51.5084 49.3132C51.0001 48.7116 50.3821 48.2335 49.6943 47.9099C49.0065 47.5862 48.2643 47.4242 47.5156 47.4343Z" fill="#23252D"/>
<path d="M95.0254 62.9922C93.9106 63.0087 92.8051 62.7676 91.7813 62.2848C90.7575 61.8019 89.8383 61.0882 89.0837 60.1901C88.2979 59.2477 87.7019 58.135 87.3344 56.9242C86.9669 55.7135 86.8361 54.4317 86.9506 53.1621C87.3487 47.8764 91.5197 43.5725 96.2434 43.5725C97.358 43.5569 98.4633 43.7983 99.487 44.2811C100.511 44.7639 101.43 45.4772 102.185 46.3746C102.97 47.3163 103.566 48.4279 103.933 49.6375C104.301 50.8471 104.432 52.1276 104.318 53.3961C103.92 58.6883 99.749 62.9922 95.0254 62.9922ZM96.2672 46.4331C94.5666 46.4953 92.9462 47.2389 91.7138 48.5226C90.4815 49.8064 89.7231 51.5407 89.5828 53.3961C89.5006 54.2711 89.5866 55.1551 89.8352 55.9915C90.0839 56.8279 90.4897 57.5981 91.0265 58.2527C91.536 58.8539 92.1552 59.3313 92.8441 59.6539C93.533 59.9764 94.2761 60.137 95.0254 60.1251C96.7263 60.0643 98.3474 59.3212 99.58 58.0372C100.813 56.7532 101.571 55.018 101.71 53.1621C101.792 52.2876 101.706 51.4039 101.456 50.5683C101.207 49.7327 100.799 48.964 100.26 48.312C99.7517 47.7104 99.1337 47.2323 98.4459 46.9087C97.7581 46.585 97.0158 46.423 96.2672 46.4331Z" fill="#23252D"/>
<path d="M88.1033 26.2982L89.9155 15.6619H101.965L107.824 26.2982H88.1033Z" fill="#23252D"/>
</svg>
