<svg id="Layer_1" data-name="Layer 1" xmlns="http://www.w3.org/2000/svg" viewBox="0 0 64 64"><defs><style>.cls-1{fill:#24252d;}</style></defs><path class="cls-1" d="M22.6,23.75c0-.07,0-.18,0-.3q0-6.9-.07-13.81A9.48,9.48,0,0,1,29.33.42a9,9,0,0,1,8.86,2,9.07,9.07,0,0,1,2.89,4.34,11.61,11.61,0,0,1,.47,3,42.18,42.18,0,0,1-.14,6.56c-.4,2.85-1.5,5.41-5,6.37a15.41,15.41,0,0,1-3.37.56c-2,.09-3.91,0-5.85,0C25.67,23.38,24.18,23.6,22.6,23.75Z"/><path class="cls-1" d="M43.77,7.68a7.78,7.78,0,0,1,5.14,3.44,8.28,8.28,0,0,1,1.35,4.72q0,10.05,0,20.12,0,9.88,0,19.76A7.91,7.91,0,0,1,45,63.47a9,9,0,0,1-2.9.49Q32,64,21.8,64a7.89,7.89,0,0,1-8.06-8.13q0-20.12,0-40.24a7.85,7.85,0,0,1,5.88-7.82l.51-.09c0,.71,0,1.38,0,2,0,.15-.23.34-.39.41A5.59,5.59,0,0,0,16,15.74c0,13.32,0,26.64,0,40a5.83,5.83,0,0,0,5.95,6q10-.14,20,0a5.83,5.83,0,0,0,5.95-6c-.06-13.36,0-26.73,0-40.1a5.6,5.6,0,0,0-3.55-5.39c-.17-.07-.41-.24-.43-.38C43.82,9.13,43.81,8.44,43.77,7.68Z"/><path class="cls-1" d="M41.48,24.78c0,1.16,0,2.19,0,3.22a41.07,41.07,0,0,1-.19,6.19,8.79,8.79,0,0,1-6.21,7.06,9.37,9.37,0,0,1-12-5.73,8.77,8.77,0,0,1-.5-3.17c0-1.16,0-2.32,0-3.47a1.46,1.46,0,0,1,1.13-1.48,15.69,15.69,0,0,1,4.41-.6,74,74,0,0,0,8.29-.39,21.68,21.68,0,0,0,4.23-1.36Z"/><path class="cls-1" d="M35.74,56.24a3.75,3.75,0,0,1-1.12,2.58,3.79,3.79,0,0,1-2.61,1,3.73,3.73,0,0,1-3.43-5.1,3.73,3.73,0,0,1,2-2.05,3.7,3.7,0,0,1,1.44-.28,3.53,3.53,0,0,1,1.43.3,3.6,3.6,0,0,1,1.21.82,3.69,3.69,0,0,1,1.05,2.68Zm-5.5-.07A1.86,1.86,0,0,0,32.05,58a1.89,1.89,0,0,0,1.77-1.78A1.83,1.83,0,0,0,33.31,55a1.8,1.8,0,0,0-1.25-.55,1.65,1.65,0,0,0-.69.12,1.73,1.73,0,0,0-.59.37,1.9,1.9,0,0,0-.4.57,1.81,1.81,0,0,0-.14.69Z"/></svg>