<svg width="81" height="81" viewBox="0 0 81 81" fill="none" xmlns="http://www.w3.org/2000/svg">
<g clip-path="url(#clip0_292_111)">
<path d="M67.8085 81H13.1865C9.69001 80.9947 6.33829 79.603 3.86634 77.1302C1.39439 74.6573 0.00395883 71.305 0 67.8085V13.1865C0.00396155 9.69045 1.39455 6.33871 3.86665 3.86661C6.33874 1.39452 9.69047 0.00396155 13.1865 0H67.8085C71.305 0.00395883 74.6573 1.39436 77.1302 3.86631C79.6031 6.33826 80.9947 9.68999 81 13.1865V67.8085C80.996 71.3059 79.605 74.6589 77.1319 77.1319C74.6589 79.6049 71.3059 80.996 67.8085 81ZM13.1865 1.99569C10.2194 1.99833 7.37443 3.17821 5.27632 5.27632C3.17821 7.37444 1.99833 10.2193 1.99569 13.1865V67.8085C1.99833 70.7761 3.17804 73.6215 5.27602 75.7205C7.37399 77.8194 10.2189 79.0003 13.1865 79.0043H67.8085C70.7766 79.0003 73.622 77.8195 75.7208 75.7208C77.8196 73.622 79.0003 70.7766 79.0043 67.8085V13.1865C79.0003 10.2189 77.8194 7.37399 75.7205 5.27602C73.6216 3.17805 70.7762 1.99833 67.8085 1.99569H13.1865Z" fill="#00BF36"/>
<path d="M72.4834 36.7557L44.4839 11.8894C43.349 10.8765 41.8834 10.3125 40.3622 10.3033C38.8411 10.2942 37.3688 10.8404 36.2217 11.8395L8.86584 35.7878C8.20769 36.3628 7.67763 37.0697 7.31 37.8626C6.94237 38.6555 6.74536 39.5167 6.73172 40.3906C6.71808 41.2645 6.88812 42.1315 7.23082 42.9354C7.57353 43.7394 8.08125 44.4625 8.72113 45.0578L36.3016 70.7223C37.44 71.7829 38.9333 72.3805 40.4891 72.398C42.0449 72.4155 43.5513 71.8518 44.7134 70.8171L72.4834 46.0855C73.1422 45.5 73.6694 44.7815 74.0305 43.9775C74.3915 43.1734 74.5782 42.302 74.5782 41.4206C74.5782 40.5392 74.3915 39.6678 74.0305 38.8638C73.6694 38.0597 73.1422 37.3413 72.4834 36.7557ZM42.8923 60.9484C39.8184 61.2826 36.7087 60.9233 33.792 59.8968C30.8753 58.8703 28.2259 57.2029 26.0388 55.0172C23.8517 52.8316 22.1825 50.1833 21.1542 47.2673C20.1258 44.3513 19.7644 41.2418 20.0966 38.1676C20.6136 33.4936 22.7075 29.1351 26.0332 25.8104C29.3588 22.4856 33.7179 20.393 38.3921 19.8772C41.4648 19.5454 44.5728 19.9066 47.4876 20.9341C50.4024 21.9616 53.0498 23.6294 55.2352 25.8148C57.4206 28.0002 59.0884 30.6476 60.1159 33.5624C61.1434 36.4772 61.5046 39.5852 61.1728 42.6579C60.6549 47.3316 58.5608 51.6896 55.2353 55.0142C51.9098 58.3388 47.5512 60.4318 42.8774 60.9484H42.8923Z" fill="#FED304"/>
<path d="M56.0788 35.3286C54.9951 32.0909 52.9212 29.2757 50.1502 27.281C47.3793 25.2862 44.0515 24.2129 40.6372 24.2126C36.5779 24.2116 32.6647 25.7271 29.665 28.462C26.6653 31.1968 24.7954 34.9536 24.4222 38.9957C34.6501 34.246 45.1824 32.7592 56.0788 35.3286Z" fill="#009CF3"/>
<path d="M24.502 42.7328C25.0427 46.6282 26.9739 50.1966 29.9394 52.7797C32.9048 55.3628 36.7045 56.7862 40.6372 56.7874C42.7762 56.7874 44.8942 56.366 46.8703 55.5473C48.8463 54.7286 50.6418 53.5287 52.1541 52.0159C53.6663 50.5032 54.8657 48.7074 55.6838 46.7311C56.5019 44.7547 56.9227 42.6366 56.922 40.4976C56.9232 39.9142 56.8915 39.3312 56.8272 38.7514C45.3221 37.2846 34.4555 38.2824 24.502 42.7328Z" fill="#009CF3"/>
</g>
<defs>
<clipPath id="clip0_292_111">
<rect width="81" height="81" fill="white"/>
</clipPath>
</defs>
</svg>
