<svg id="Layer_1" data-name="Layer 1" xmlns="http://www.w3.org/2000/svg" viewBox="0 0 64 64"><defs><style>.cls-1{fill:#23252d;}</style></defs><path class="cls-1" d="M13.07,58.4a8.83,8.83,0,0,1-8.84-8.79,4.23,4.23,0,0,1,0-.72,1.11,1.11,0,0,1,.14-.47,1.22,1.22,0,0,1,.73-.6,1.16,1.16,0,0,1,.49,0,1.07,1.07,0,0,1,.46.14,1.23,1.23,0,0,1,.38.3,1.37,1.37,0,0,1,.23.43,1.11,1.11,0,0,1,0,.48c0,.16,0,.31,0,.49a6.34,6.34,0,0,0,6.35,6.18A6.39,6.39,0,0,0,17.52,54a6.32,6.32,0,0,0,1.91-4.38,3.93,3.93,0,0,0,0-.49,1.11,1.11,0,0,1,.05-.48,1.37,1.37,0,0,1,.23-.43,1.13,1.13,0,0,1,.38-.3,1.07,1.07,0,0,1,.46-.14,1.16,1.16,0,0,1,.49,0,1.28,1.28,0,0,1,.43.23,1.19,1.19,0,0,1,.3.37,1.11,1.11,0,0,1,.14.47,5.79,5.79,0,0,1,0,.72,8.78,8.78,0,0,1-5.48,8.12A8.9,8.9,0,0,1,13.07,58.4Z"/><path class="cls-1" d="M25.12,50.24A1.23,1.23,0,0,1,23.88,49a10.19,10.19,0,0,0-2.29-6.47A10.27,10.27,0,0,0,8.87,39.94,10.16,10.16,0,0,0,4.2,45a1.29,1.29,0,0,1-.68.66A1.27,1.27,0,0,1,1.9,45a1.23,1.23,0,0,1,0-.94,12.73,12.73,0,0,1,24.44,5,1.24,1.24,0,0,1-.36.87A1.27,1.27,0,0,1,25.12,50.24Z"/><path class="cls-1" d="M54.36,58.4a8.79,8.79,0,0,1-8.67-10.51,8.76,8.76,0,0,1,2.42-4.5A8.85,8.85,0,0,1,61.7,44.72a8.75,8.75,0,0,1-1.1,11.1A8.83,8.83,0,0,1,54.36,58.4Zm0-15.11a6.39,6.39,0,0,0-3.53,1.06,6.31,6.31,0,0,0-1,9.73,6.36,6.36,0,0,0,9.77-1,6.3,6.3,0,0,0-.79-8A6.39,6.39,0,0,0,54.36,43.29Z"/><path class="cls-1" d="M46.79,50.24H4.26a2.57,2.57,0,0,1-1-.2,2.63,2.63,0,0,1-.84-.56,2.48,2.48,0,0,1-.56-.83,2.57,2.57,0,0,1-.19-1c0-8.72,2.88-14.6,8.5-17.48a1.07,1.07,0,0,1,.47-.14,1.36,1.36,0,0,1,.49,0,1.22,1.22,0,0,1,.43.24,1.19,1.19,0,0,1,.44.85,1,1,0,0,1-.06.49,1.22,1.22,0,0,1-.24.43,1.28,1.28,0,0,1-.4.29C6.58,34.8,4.17,40,4.17,47.67a.06.06,0,0,0,0,0l0,0,0,0H46.8a1.25,1.25,0,0,1,.88.36,1.19,1.19,0,0,1,.37.87,1.23,1.23,0,0,1-.37.88,1.25,1.25,0,0,1-.88.36Z"/><path class="cls-1" d="M27.4,32.52H6.24a5,5,0,0,1-5-5V26.41a5,5,0,0,1,5-4.95H22.16a8.18,8.18,0,0,1,8.18,8.14,2.91,2.91,0,0,1-.23,1.12,2.86,2.86,0,0,1-.64.94,3,3,0,0,1-.95.64A3.1,3.1,0,0,1,27.4,32.52ZM6.24,23.93a2.49,2.49,0,0,0-2.49,2.48v1.16a2.44,2.44,0,0,0,.73,1.75,2.51,2.51,0,0,0,1.76.73H27.41a.47.47,0,0,0,.31-.14.4.4,0,0,0,.13-.31,5.67,5.67,0,0,0-1.67-4,5.73,5.73,0,0,0-4-1.66Z"/><path class="cls-1" d="M37.06,42.73H30.23a3.24,3.24,0,0,1-3.12-2.3l-2.68-8.79a1.29,1.29,0,0,1-.05-.48,1.21,1.21,0,0,1,.45-.83,1.12,1.12,0,0,1,.43-.23,1.29,1.29,0,0,1,.48-.05,1.23,1.23,0,0,1,.46.14,1.26,1.26,0,0,1,.38.31,1.32,1.32,0,0,1,.23.42l2.68,8.79a.81.81,0,0,0,.28.4.87.87,0,0,0,.46.15h6.83a.66.66,0,0,0,.46-.19.63.63,0,0,0,.18-.45V31.45a15.06,15.06,0,0,1,2.83-8.81l1.72-2.41a1.3,1.3,0,0,1,.35-.35,1.25,1.25,0,0,1,.45-.18,1.2,1.2,0,0,1,.5,0,1.26,1.26,0,0,1,.79.56,1.41,1.41,0,0,1,.17.46,1.35,1.35,0,0,1,0,.49,1.19,1.19,0,0,1-.21.44l-1.72,2.41a12.59,12.59,0,0,0-2.36,7.38v8.17a3.08,3.08,0,0,1-.92,2.2A3.13,3.13,0,0,1,37.06,42.73Z"/><path class="cls-1" d="M48.11,22.13H40.17a2.58,2.58,0,0,1-2.59-2.57V13.64a2.58,2.58,0,0,1,2.59-2.57h7.94a5.52,5.52,0,0,1,2.17.38,5.55,5.55,0,0,1,3.09,3,5.47,5.47,0,0,1,0,4.3,5.55,5.55,0,0,1-3.09,3A5.52,5.52,0,0,1,48.11,22.13Zm-7.94-8.59a.08.08,0,0,0-.07,0,.09.09,0,0,0,0,.07v5.92a.09.09,0,0,0,0,.07.08.08,0,0,0,.07,0h7.94a3.09,3.09,0,0,0,1.21-.21,2.91,2.91,0,0,0,1-.65,3.21,3.21,0,0,0,.7-1,3,3,0,0,0,.24-1.19,3.1,3.1,0,0,0-.24-1.2,3.29,3.29,0,0,0-.7-1,2.94,2.94,0,0,0-1-.66,3.27,3.27,0,0,0-1.21-.2Z"/><path class="cls-1" d="M38.83,17.55H33a1.24,1.24,0,0,1-.87-.36,1.21,1.21,0,0,1,0-1.74,1.21,1.21,0,0,1,.87-.37h5.84a1.22,1.22,0,0,1,.88.37,1.21,1.21,0,0,1,0,1.74A1.25,1.25,0,0,1,38.83,17.55Z"/><path class="cls-1" d="M50.55,44.31a1.25,1.25,0,0,1-.88-.36,1.27,1.27,0,0,1-.36-.88V33.5L46.64,21.14a1.16,1.16,0,0,1,0-.49,1.3,1.3,0,0,1,.18-.46,1.36,1.36,0,0,1,.33-.35,1.27,1.27,0,0,1,.45-.19,1.16,1.16,0,0,1,.49,0,1.23,1.23,0,0,1,.46.18,1.17,1.17,0,0,1,.35.35,1.18,1.18,0,0,1,.18.45l2.7,12.48a1.15,1.15,0,0,1,0,.26v9.71a1.23,1.23,0,0,1-1.24,1.24Z"/><path class="cls-1" d="M61.4,42.73H50.55a1.23,1.23,0,0,1-1.24-1.23,1.27,1.27,0,0,1,.36-.88,1.25,1.25,0,0,1,.88-.36H61l-2.44-3a6.93,6.93,0,0,0-2.45-1.81,7.14,7.14,0,0,0-3-.62H50.54a1.25,1.25,0,0,1-.88-.36,1.23,1.23,0,0,1-.36-.87,1.27,1.27,0,0,1,.36-.88,1.25,1.25,0,0,1,.88-.36h2.58a9.57,9.57,0,0,1,4,.87,9.37,9.37,0,0,1,3.3,2.48l2.8,3.37a2.08,2.08,0,0,1,.49,1.1,2.15,2.15,0,0,1-.18,1.2,2.41,2.41,0,0,1-.89,1A2.31,2.31,0,0,1,61.4,42.73Z"/><path class="cls-1" d="M19.63,15.41H1.47a1.24,1.24,0,1,1,0-2.47H19.63a1.24,1.24,0,1,1,0,2.47Z"/><path class="cls-1" d="M26.43,8H8.27a1.24,1.24,0,0,1-.88-2.11,1.27,1.27,0,0,1,.88-.36H26.43a1.25,1.25,0,0,1,.88.36,1.21,1.21,0,0,1,0,1.74A1.22,1.22,0,0,1,26.43,8Z"/><path class="cls-1" d="M54.36,51.33a1.73,1.73,0,1,0-1.73-1.72A1.73,1.73,0,0,0,54.36,51.33Z"/></svg>