<svg id="Layer_1" data-name="Layer 1" xmlns="http://www.w3.org/2000/svg" xmlns:xlink="http://www.w3.org/1999/xlink" viewBox="0 0 64 64"><defs><style>.cls-1{fill:none;}.cls-2{clip-path:url(#clip-path);}.cls-3{fill:#23252d;}</style><clipPath id="clip-path"><polygon class="cls-1" points="-4.8 12.51 34.76 -12.83 72.02 49.49 32.45 74.83 -4.8 12.51"/></clipPath></defs><g class="cls-2"><path class="cls-3" d="M28.35,16.13,23,18.06l-2.69,1-6.9,2.49a4.81,4.81,0,0,0-2.65,2.33,5.18,5.18,0,0,0-.46,3.59l.55,2.37.93,4.1L14,43.48a5.18,5.18,0,0,0,.87,1.91,4.93,4.93,0,0,0,1.54,1.37L45.75,63.54a4.35,4.35,0,0,0,3.4.39,4.42,4.42,0,0,0,2.66-2.21L63.44,39.56A4.85,4.85,0,0,0,63.8,36a4.72,4.72,0,0,0-2.16-2.78L32.28,16.47a4.84,4.84,0,0,0-1.93-.6A4.69,4.69,0,0,0,28.35,16.13ZM60.29,35.81a1.69,1.69,0,0,1,.8,1A1.8,1.8,0,0,1,61,38.15L49.33,60.3a1.62,1.62,0,0,1-1,.82A1.59,1.59,0,0,1,47.09,61L17.76,44.19a2.14,2.14,0,0,1-.65-.58,2.21,2.21,0,0,1-.37-.81L15,35.21l-.77-3.36L13,26.76a2.21,2.21,0,0,1,.19-1.52,2,2,0,0,1,1.12-1l7.16-2.58,2.64-.95,5.15-1.85a2,2,0,0,1,.84-.12A2.13,2.13,0,0,1,31,19Z"/><path class="cls-3" d="M25.25,25.55a5.36,5.36,0,0,0-2.9-.43,5.25,5.25,0,0,0-2.45.95,5.7,5.7,0,0,0-1.76,2,6,6,0,0,0-.37,4.66,5.81,5.81,0,0,0,1.88,2.73,5.4,5.4,0,0,0,.74.51,5.6,5.6,0,0,0,2.09.69,5.3,5.3,0,0,0,2.17-.19,5.52,5.52,0,0,0,1.94-1A5.75,5.75,0,0,0,28,33.7a6,6,0,0,0,.65-2.16,5.94,5.94,0,0,0-.2-2.26,6.11,6.11,0,0,0-1-2,5.74,5.74,0,0,0-1.68-1.46Zm.25,6.74a2.78,2.78,0,0,1-1.12,1.16,2.69,2.69,0,0,1-1.55.32,2.84,2.84,0,0,1-1.1-.35A3,3,0,0,1,20.48,32a3.18,3.18,0,0,1-.2-1.26,2.86,2.86,0,0,1,1.09-2.13,2.78,2.78,0,0,1,1.05-.51,2.69,2.69,0,0,1,2,.29,2.88,2.88,0,0,1,1.44,2.23A3,3,0,0,1,25.5,32.29Z"/><path class="cls-3" d="M3.05,7.52A7,7,0,0,0,1.12,9.81c-2.23,4.26-1,11.31,3.35,17.38a23,23,0,0,0,7.31,6.68A15,15,0,0,0,15,35.21l-.78-3.37a15.53,15.53,0,0,1-3.38-2.08,21.94,21.94,0,0,1-4.11-4.33c-4-5.58-4.62-11.37-3.13-14.22A4.24,4.24,0,0,1,4.72,9.83c1.88-1.45,4.52-.74,5.93-.18a19,19,0,0,1,7.94,6.6A23.22,23.22,0,0,1,20.29,19a22.83,22.83,0,0,1,1.19,2.67,18.2,18.2,0,0,1,.85,3.42,12.21,12.21,0,0,1,.07,3,6.8,6.8,0,0,1-.69,2.42,4.21,4.21,0,0,1-1.13,1.38l-.12.08a4.57,4.57,0,0,1-2.73.77,5.88,5.88,0,0,0,1.88,2.73,6.69,6.69,0,0,0,2.66-1.24c.18-.15.36-.3.53-.46a7.38,7.38,0,0,0,1.38-1.85A9.6,9.6,0,0,0,25.12,29a14.22,14.22,0,0,0,.09-3.45,19.67,19.67,0,0,0-1.09-4.8A25.58,25.58,0,0,0,23,18a27.29,27.29,0,0,0-2.14-3.52C15.54,7.16,7.57,4,3.05,7.52Z"/><path class="cls-3" d="M33.65,46l-.76-.42a3.9,3.9,0,0,1-1.36-1.26A3.46,3.46,0,0,1,31,42.54a3.87,3.87,0,0,1,.48-2A3.68,3.68,0,0,1,32.79,39a3.2,3.2,0,0,1,1.71-.43,3.8,3.8,0,0,1,1.76.53l.76.41a3.87,3.87,0,0,1,1.35,1.26A3.38,3.38,0,0,1,39,42.56a3.94,3.94,0,0,1-.5,2,3.65,3.65,0,0,1-1.35,1.51,3.19,3.19,0,0,1-1.7.43A3.73,3.73,0,0,1,33.65,46Zm11.19,5.18L36,33.07l1-1.86,8.83,18.08ZM34,43.46l.75.41a2.11,2.11,0,0,0,1.06.29,1,1,0,0,0,.53-.18,1.06,1.06,0,0,0,.36-.45,1.1,1.1,0,0,0,0-1.14,2.19,2.19,0,0,0-.81-.76l-.75-.42a2.24,2.24,0,0,0-1.06-.31,1,1,0,0,0-.55.19,1,1,0,0,0-.35.47,1.06,1.06,0,0,0-.18.55,1.1,1.1,0,0,0,.15.57A2.42,2.42,0,0,0,34,43.46Zm11.63-.36-.76-.41a4.07,4.07,0,0,1-1.35-1.26,3.44,3.44,0,0,1-.58-1.75,3.82,3.82,0,0,1,.49-2,3.62,3.62,0,0,1,1.35-1.52,3,3,0,0,1,1.73-.45,3.8,3.8,0,0,1,1.76.53l.76.42a4.06,4.06,0,0,1,1.36,1.25A3.34,3.34,0,0,1,51,39.67a3.83,3.83,0,0,1-.49,2A3.57,3.57,0,0,1,49.1,43.2a3,3,0,0,1-1.71.43A3.8,3.8,0,0,1,45.63,43.1ZM46,40.61l.76.41a2.07,2.07,0,0,0,1.05.28,1,1,0,0,0,.55-.19,1,1,0,0,0,.35-.45,1.08,1.08,0,0,0,0-1.13,2.18,2.18,0,0,0-.8-.77l-.76-.42a2.16,2.16,0,0,0-1-.3.91.91,0,0,0-.55.18,1,1,0,0,0-.36.46,1.06,1.06,0,0,0-.17.57,1,1,0,0,0,.14.57A2.33,2.33,0,0,0,46,40.61Z"/></g></svg>