<svg id="Layer_1" data-name="Layer 1" xmlns="http://www.w3.org/2000/svg" xmlns:xlink="http://www.w3.org/1999/xlink" viewBox="0 0 64 64"><defs><style>.cls-1{fill:none;}.cls-2{clip-path:url(#clip-path);}.cls-3{fill:#24252d;}</style><clipPath id="clip-path"><rect class="cls-1" width="64" height="64"/></clipPath></defs><g class="cls-2"><path class="cls-3" d="M53.58,64H10.42A10.43,10.43,0,0,1,0,53.58V10.42A10.45,10.45,0,0,1,10.42,0H53.58A10.43,10.43,0,0,1,64,10.42V53.58A10.45,10.45,0,0,1,53.58,64ZM10.42,1.58a8.84,8.84,0,0,0-8.84,8.84V53.58a8.84,8.84,0,0,0,8.84,8.84H53.58a8.84,8.84,0,0,0,8.84-8.84V10.42a8.84,8.84,0,0,0-8.84-8.84Z"/><path class="cls-3" d="M57.27,29,35.15,9.39a4.95,4.95,0,0,0-6.53,0L7,28.28a5,5,0,0,0-1.69,3.63A4.91,4.91,0,0,0,6.89,35.6L28.68,55.88a4.94,4.94,0,0,0,6.65.07L57.27,36.41a4.89,4.89,0,0,0,1.22-5.7A4.81,4.81,0,0,0,57.27,29ZM33.89,48.16a16.33,16.33,0,0,1-13.32-4.69,16.3,16.3,0,0,1-4.69-13.31,16.31,16.31,0,1,1,18,18Z"/><path class="cls-3" d="M44.31,27.91a12.87,12.87,0,0,0-25,2.9C27.38,27.06,35.7,25.88,44.31,27.91Z"/><path class="cls-3" d="M19.36,33.76A12.87,12.87,0,0,0,37,43.89,12.88,12.88,0,0,0,45,32a12.77,12.77,0,0,0-.08-1.38C35.81,29.46,27.22,30.25,19.36,33.76Z"/></g></svg>