<svg width="106" height="117" viewBox="0 0 106 117" fill="none" xmlns="http://www.w3.org/2000/svg">
<g clip-path="url(#clip0_315_96)">
<path d="M45.8874 38.8027L38.532 41.3654L34.8385 42.6495L25.3439 45.9577C23.7871 46.5003 22.4902 47.6042 21.7037 49.0564C20.9139 50.5087 20.6899 52.2073 21.075 53.8247L21.8311 56.9674L23.1102 62.4238L26.1823 75.1272C26.4006 76.0443 26.8084 76.9065 27.3793 77.6577C27.9501 78.4089 28.6711 79.0323 29.4954 79.4873L69.7949 101.763C71.2279 102.554 72.9108 102.744 74.4737 102.291C76.0366 101.839 77.3516 100.78 78.1299 99.3484L94.1092 69.927C94.8862 68.4946 95.0625 66.8066 94.5994 65.2341C94.1362 63.6615 93.0715 62.333 91.6392 61.5405L51.2885 39.2615C50.4668 38.8119 49.5619 38.5388 48.6318 38.4598C47.7017 38.3808 46.7669 38.4976 45.8874 38.8027ZM89.7877 64.9428C90.3177 65.2379 90.7112 65.731 90.882 66.314C91.0528 66.897 90.9868 67.5224 90.6987 68.0531L74.7244 97.4713C74.4355 98.0012 73.9482 98.3929 73.3695 98.5607C72.7907 98.7285 72.1675 98.6588 71.6363 98.3667L31.321 76.0658C30.9734 75.8744 30.6694 75.6118 30.4289 75.2952C30.1884 74.9786 30.0169 74.6151 29.9254 74.2284L27.5126 64.1494L26.4439 59.6769L24.8282 52.9197C24.6659 52.2373 24.7603 51.5207 25.0934 50.908C25.4239 50.2953 25.97 49.8293 26.626 49.6L36.463 46.1786L40.1016 44.9074L47.1726 42.4501C47.5446 42.3193 47.9405 42.2689 48.3345 42.3021C48.7284 42.3354 49.1117 42.4515 49.4592 42.643L89.7877 64.9428Z" fill="#23252D"/>
<path d="M41.615 51.3188C40.3627 50.7747 38.9911 50.5743 37.6415 50.7382C36.4315 50.8831 35.2755 51.3154 34.2691 51.9994C33.2628 52.6835 32.435 53.5995 31.8544 54.6718C31.3431 55.6077 31.0331 56.6421 30.9443 57.7087C30.8554 58.7752 30.9897 59.8504 31.3385 60.8652C31.8279 62.2997 32.7254 63.5615 33.9193 64.4937C34.2433 64.7429 34.5855 64.9673 34.9429 65.1649C35.8307 65.6568 36.8052 65.9688 37.8104 66.0832C38.8156 66.1975 39.8318 66.1119 40.801 65.8312C41.7701 65.5505 42.6731 65.0802 43.4582 64.4474C44.2434 63.8145 44.8953 63.0314 45.3766 62.1429C45.8582 61.2551 46.1602 60.2793 46.2652 59.2713C46.3702 58.2634 46.2763 57.243 45.9887 56.2684C45.7012 55.2938 45.2256 54.3842 44.5893 53.5914C43.9529 52.7986 43.1683 52.1381 42.28 51.6478C42.0643 51.5263 41.8423 51.4165 41.615 51.3188ZM41.9711 60.2659C41.6172 60.9176 41.0816 61.4507 40.4294 61.8005C39.7772 62.1503 39.0363 62.3016 38.2968 62.2362C37.7657 62.1831 37.2501 62.0224 36.7811 61.7638C36.0079 61.3385 35.4038 60.6578 35.0723 59.8382C34.8548 59.3099 34.7575 58.7404 34.7877 58.1713C34.8179 57.6023 34.9747 57.0483 35.2467 56.55C35.5026 56.0761 35.8565 55.6632 36.2848 55.3385C36.7131 55.0139 37.206 54.7851 37.7308 54.6673C38.6435 54.4526 39.6058 54.5892 40.4285 55.0501C40.8262 55.2665 41.1829 55.552 41.4816 55.8934C41.9965 56.489 42.3193 57.2268 42.4068 58.0081C42.4942 58.7895 42.3423 59.5772 41.9711 60.2659Z" fill="#23252D"/>
<path d="M11.1054 27.3647C10.0144 28.1787 9.11105 29.2185 8.45565 30.4147C5.39067 36.0698 7.05098 45.4298 13.0667 53.491C15.7314 57.1472 19.1581 60.1782 23.1051 62.3704C24.5018 63.1258 25.9775 63.7218 27.5043 64.1474L26.4356 59.6749C24.7784 58.9534 23.2183 58.0229 21.7931 56.9061C19.6543 55.261 17.7516 53.3268 16.1399 51.1593C10.6108 43.749 9.78903 36.0491 11.8435 32.2744C12.2251 31.5577 12.7565 30.9331 13.4016 30.4429C15.9831 28.5141 19.6165 29.4603 21.5528 30.1943C25.4367 31.6696 29.4049 34.8627 32.4629 38.9574C33.3272 40.1132 34.1077 41.3294 34.7986 42.5965C35.4292 43.7414 35.9758 44.9305 36.4339 46.1542C36.9827 47.6197 37.3741 49.1387 37.6017 50.6852C37.8031 51.9871 37.8359 53.3085 37.6992 54.6162C37.592 55.7418 37.272 56.835 36.7562 57.8371C36.3763 58.555 35.8446 59.18 35.198 59.6687L35.0312 59.7719C33.9239 60.4977 32.6156 60.8561 31.2893 60.7969C31.7787 62.2314 32.6761 63.4932 33.8701 64.4253C35.1928 64.1472 36.4382 63.5858 37.5214 62.7794C37.7755 62.5799 38.0213 62.3785 38.2526 62.1648C39.0123 61.4521 39.6519 60.6205 40.1472 59.702C40.7916 58.4937 41.2288 57.1839 41.4406 55.8271C41.6778 54.3148 41.7199 52.7766 41.5657 51.2505C41.3484 49.0676 40.843 46.9212 40.0629 44.8677C39.6101 43.6464 39.0823 42.4539 38.4827 41.2971C37.6277 39.6657 36.6451 38.1043 35.5443 36.6276C28.2788 26.8857 17.3174 22.7169 11.1054 27.3647Z" fill="#23252D"/>
<path d="M53.1627 78.4312L52.1207 77.8771C51.3766 77.4781 50.7374 76.9063 50.257 76.2096C49.781 75.5202 49.5082 74.711 49.4701 73.8758C49.4403 72.9541 49.6697 72.0447 50.1322 71.2518C50.5472 70.4155 51.191 69.7164 51.9887 69.2357C52.6993 68.8263 53.5128 68.6286 54.3344 68.6657C55.1836 68.7017 56.0138 68.9397 56.7564 69.3601L57.7952 69.9091C58.5377 70.3104 59.1764 70.8818 59.6589 71.5766C60.1369 72.265 60.41 73.0748 60.4459 73.9104C60.4684 74.8419 60.2325 75.7594 59.7647 76.5603C59.3462 77.3911 58.7025 78.0851 57.907 78.5631C57.1988 78.9714 56.3885 79.1696 55.5695 79.135C54.7244 79.0956 53.8993 78.8543 53.1627 78.4312ZM68.5499 85.3125L56.4149 61.3067L57.7574 58.8329L69.8923 82.8387L68.5499 85.3125ZM53.6428 75.0948L54.6847 75.6489C55.1293 75.8967 55.6286 76.027 56.1354 76.0276C56.3973 76.0204 56.6511 75.9383 56.867 75.791C57.083 75.6436 57.2521 75.4371 57.3544 75.1957C57.5071 74.9772 57.5938 74.7187 57.6041 74.4511C57.6145 74.1834 57.548 73.9178 57.4127 73.6858C57.1355 73.2569 56.7544 72.9054 56.3054 72.6645L55.2635 72.1104C54.8193 71.8602 54.3227 71.7202 53.8153 71.7019C53.5449 71.7079 53.2828 71.7935 53.0616 71.9479C52.8403 72.1024 52.6695 72.319 52.5704 72.5709C52.4207 72.7897 52.3381 73.0481 52.3328 73.3144C52.3275 73.5807 52.3997 73.8434 52.5405 74.0703C52.8197 74.4964 53.1982 74.8482 53.6428 75.0948ZM69.6318 74.6223L68.593 74.0733C67.8514 73.6708 67.213 73.0996 66.7293 72.4058C66.2553 71.7162 65.981 70.9092 65.9373 70.0752C65.9065 69.146 66.1392 68.2292 66.6084 67.4315C67.0263 66.5973 67.6693 65.899 68.4648 65.4155C69.1807 64.99 70.0067 64.7853 70.8408 64.8267C71.6886 64.8645 72.5169 65.1035 73.2578 65.5242L74.2997 66.0783C75.0439 66.4779 75.6844 67.0483 76.1685 67.7427C76.649 68.429 76.9239 69.2381 76.9605 70.0733C76.9907 71.0053 76.7574 71.9247 76.2876 72.7252C75.8682 73.5728 75.2117 74.278 74.3977 74.7549C73.684 75.1619 72.87 75.3603 72.0469 75.3281C71.1995 75.2852 70.3722 75.0435 69.6318 74.6223ZM70.1062 71.3106L71.145 71.8596C71.5876 72.1089 72.0867 72.2377 72.5925 72.2332C72.8597 72.2238 73.118 72.1381 73.3373 71.9862C73.5565 71.8343 73.7276 71.6224 73.8305 71.3755C73.9819 71.1583 74.0673 70.9014 74.0764 70.6355C74.0855 70.3697 74.018 70.1063 73.8819 69.8769C73.6042 69.4495 73.2253 69.0974 72.7796 68.8524L71.7408 68.3035C71.2945 68.0545 70.7963 67.9155 70.2876 67.8981C70.0181 67.9023 69.7564 67.9862 69.5353 68.1393C69.3143 68.2924 69.1435 68.508 69.0446 68.7589C68.8942 68.9787 68.81 69.2375 68.802 69.5049C68.794 69.7723 68.8626 70.037 68.9995 70.2677C69.2747 70.7035 69.6556 71.0625 70.1062 71.3106Z" fill="#23252D"/>
</g>
<defs>
<clipPath id="clip0_315_96">
<rect width="63.9529" height="97.3196" fill="white" transform="translate(0.313965 34) rotate(-31.7485)"/>
</clipPath>
</defs>
</svg>
